<?xml version="1.0" encoding="utf-8"?>
<svg xmlns="http://www.w3.org/2000/svg" viewBox="0 0 640 480">
<style type="text/css">
	.st0{fill:none;stroke:#999999;stroke-dasharray:10 10;stroke-dashoffset:5;}
	.st1{fill:none;stroke:#000000;stroke-width:30;}
	.st2{fill:none;stroke:#000000;stroke-width:4;}
	.st3{font-family:sans-serif;font-weight:bold;font-size:18px;text-anchor:middle;}
	.st4{fill:#FFFFFF;font-size:17px;}
	.st5{fill:#B3B3B3;font-family:sans-serif;font-style:italic;font-size:24px;text-anchor:middle;}
</style>
<g id="Forms">
	<rect id="content_box" x="160" y="150" class="st0" width="320" height="180"/>
	<rect id="border_box"  x="80"  y="80"  class="st1" width="480" height="320"/>
	<rect id="margin_box"  x="10"  y="10"  class="st0" width="620" height="460"/>
	<g id="height">
		<line id="height_line" class="st2" x1="50" y1="74" x2="50" y2="406"/>
		<polygon points="50,76 43.649,76 46.824,70.493 50,65 53.176,70.5 56.351,76 		"/>
		<polygon points="50,404 56.351,404 53.176,409.507 50,415 46.824,409.5 43.649,404 		"/>
	</g>
	<g id="width">
		<line class="st2" x1="74" y1="430" x2="564" y2="430"/>
		<polygon points="76,430 76,436.351 70.493,433.176 65,430 70.5,426.824 76,423.649 		"/>
		<polygon points="564,430 564,423.649 569.507,426.824 575,430 569.5,433.176 564,436.351 		"/>
	</g>
</g>
<g id="Text">
	<text x="495" y="450" class="st3">width</text>
	<text transform="matrix(4.489659e-11 -1 1 4.489659e-11 40 335)" class="st3">height</text>
	<text x="320" y="87.2582"  class="st3 st4">border</text>
	<text x="320" y="127.1655" class="st3">padding</text>
	<text x="320" y="45.0264"  class="st3">margin</text>
	<text x="320" y="246.1833" class="st5">content</text>
</g>
</svg>
