<?xml version="1.0" encoding="UTF-8" standalone="no"?>
<svg xmlns:dc="http://purl.org/dc/elements/1.1/" xmlns:cc="http://creativecommons.org/ns#" xmlns:rdf="http://www.w3.org/1999/02/22-rdf-syntax-ns#" xmlns:svg="http://www.w3.org/2000/svg" xmlns="http://www.w3.org/2000/svg" xmlns:sodipodi="http://sodipodi.sourceforge.net/DTD/sodipodi-0.dtd" xmlns:inkscape="http://www.inkscape.org/namespaces/inkscape" viewBox="0 0 635 245" id="svg3336" version="1.1" sodipodi:docname="MDN How_CSS_works_2.svg">
  <metadata id="metadata3503">
    <rdf:RDF>
      <cc:Work rdf:about="">
        <dc:format>image/svg+xml</dc:format>
        <dc:type rdf:resource="http://purl.org/dc/dcmitype/StillImage"/>
        <dc:title/>
      </cc:Work>
    </rdf:RDF>
  </metadata>
  <defs id="defs3501"/>
<style>
	.st0{fill:none;}
	.st1{fill:#C6DD7F;}
	.st2{fill:#E9DDB7;}
	.st3{fill:#A6D0E4;}
	.st4{fill:#E6E6E6;stroke:#000000;stroke-miterlimit:10;}
	.st5{font-family:'open_sanssemibold', sans-serif;}
	.st6{font-size:16px;}
	.st7{fill:#BEF0F0;stroke:#000000;stroke-miterlimit:10;}
	.st8{fill:#F0C8B4;stroke:#000000;stroke-miterlimit:10;}
	.st9{fill:url(#Alysse);stroke:#000000;stroke-miterlimit:10;}
	.st10{font-family:'open_sansbold', sans-serif;}
	.st11{font-family:'open_sansitalic', sans-serif;}
</style>
  <pattern width="144.13" height="138.362" patternUnits="userSpaceOnUse" id="Alysse" viewBox="99.963 -216.829 144.13 138.362" style="overflow:visible;">
    <g id="g3341">
      <polygon class="st0" points="99.963,-216.829 244.093,-216.829 244.093,-78.467 99.963,-78.467   " id="polygon3343"/>
      <g id="g3345">
        <path class="st1" d="M311.036-58.307c-11.76-1.384-19.369,0.346-22.654,3.113c-3.02,2.543-4.955,5.405-2.248,11.932     c2.939,7.091,1.533,14.732-5.535,15.91c-6.225,1.037-10.895-4.842-11.24-12.278c-0.24-5.183-1.902-8.301-5.533-7.608     c-3.633,0.691-4.629,5.9-3.633,11.759c1.385,8.128,5.535,11.76,6.227,20.233c0.494,6.055-2.939,13.662-12.451,15.045     c-9.301,1.354-15.91-4.322-16.602-10.549c-0.732-6.588,3.631-10.894,3.111-17.639c-0.518-6.745-4.012-10.172-5.879-17.294     c-2.768-10.549,1.211-19.022,7.781-22.654c14.746-8.148,22.832,3.642,35.971,1.556c10.897-1.729,23.348-18.157,33.031-19.541     c8.227-1.175,13.834,4.669,15.045,14.008C327.638-62.976,321.687-57.053,311.036-58.307z M268.841-57.788     c0-2.292-1.859-4.15-4.15-4.15c-2.293,0-4.15,1.858-4.15,4.15s1.858,4.15,4.15,4.15     C266.982-53.638,268.841-55.496,268.841-57.788z M318.3-73.179c0-0.955-0.775-1.73-1.73-1.73c-0.955,0-1.728,0.774-1.728,1.73     c0,0.955,0.773,1.729,1.728,1.729C317.525-71.45,318.3-72.224,318.3-73.179z" id="path3347"/>
      </g>
      <g id="g3349">
        <path class="st2" d="M148.796-77.494c0,7.166,4.588,13.813-1,16.333c-8.5,3.833-28-14.333-28-36.167c0-12,8.668-19,17.834-19     c12.334,0,18,8.167,18,17.5C155.63-89.496,148.796-85.689,148.796-77.494z M143.387-82.864c0-1.146-0.93-2.075-2.074-2.075     c-1.146,0-2.076,0.929-2.076,2.075c0,1.146,0.93,2.075,2.076,2.075C142.458-80.788,143.387-81.718,143.387-82.864z" id="path3351"/>
        <path class="st3" d="M223.494-54c-7.871,2.737-19.439-15.297-17.67-27.019c1.24-8.228,7.123-13.189,13.088-14.217     c7.525-1.297,12.898,2.601,13.299,7.243c0.547,6.309-3.633,7.518-4.223,14.958C227.426-65.9,231.68-56.849,223.494-54z      M219.705-81.508c0-1.434-1.162-2.595-2.594-2.595c-1.434,0-2.594,1.161-2.594,2.595c0,1.433,1.16,2.594,2.594,2.594     C218.543-78.914,219.705-80.076,219.705-81.508z" id="path3353"/>
        <path class="st2" d="M119.35-76.465c0,1.433-1.162,2.594-2.594,2.594c-1.434,0-2.594-1.161-2.594-2.594     c0-1.433,1.16-2.594,2.594-2.594C118.188-79.059,119.35-77.898,119.35-76.465z" id="path3355"/>
        <path class="st3" d="M184.573-84.189c0.74,8.101,12.671,7.017,17.904,14.214c10.52,14.475-1.219,46.365-21.63,46.365     c-11.74,0-24.217-9.719-24.217-29.219c0-15.834,10.166-21.5,8.25-42.166c-1.006-10.834-12.5-20.343-12.5-34.75     c0-5.922,3.586-13.447,11.553-13.447c7.055,0,10.822,5.953,10.822,12.9c0,6.798-5.381,15.74,1.375,19.047     c5.242,2.565,13.211-4.77,19.499-6.75c5.191-1.636,12.389,0.225,14.75,8.5c2.531,8.876-3.252,14.745-11.592,16.693     C192.469-91.325,183.985-90.63,184.573-84.189z M168.589-114.747c0-1.815-1.471-3.287-3.285-3.287     c-1.814,0-3.287,1.472-3.287,3.287c0,1.814,1.473,3.285,3.287,3.285C167.118-111.462,168.589-112.933,168.589-114.747z      M194.572-105.052c1.285,0,2.328-1.043,2.328-2.33c0-1.286-1.043-2.328-2.328-2.328c-1.287,0-2.33,1.042-2.33,2.328     C192.243-106.095,193.286-105.052,194.572-105.052z M174.589-45.38c0-1.815-1.471-3.287-3.287-3.287     c-1.814,0-3.285,1.472-3.285,3.287c0,1.815,1.471,3.285,3.285,3.285C173.118-42.095,174.589-43.566,174.589-45.38z" id="path3357"/>
        <path class="st1" d="M166.907-58.307c-11.76-1.384-19.369,0.346-22.654,3.113c-3.02,2.543-4.955,5.405-2.248,11.932     c2.939,7.091,1.533,14.732-5.535,15.91c-6.225,1.037-10.895-4.842-11.24-12.278c-0.24-5.183-1.902-8.301-5.533-7.608     c-3.633,0.691-4.629,5.9-3.633,11.759c1.385,8.128,5.535,11.76,6.227,20.233c0.494,6.055-2.939,13.662-12.451,15.045     c-9.301,1.354-15.91-4.322-16.602-10.549c-0.732-6.588,3.631-10.894,3.111-17.639c-0.517-6.745-4.012-10.172-5.879-17.294     c-2.768-10.549,1.211-19.022,7.781-22.654c14.746-8.148,22.832,3.642,35.971,1.556c10.896-1.729,23.348-18.157,33.031-19.541     c8.227-1.175,13.834,4.669,15.045,14.008C183.508-62.976,177.557-57.053,166.907-58.307z M124.711-57.788     c0-2.292-1.859-4.15-4.15-4.15c-2.293,0-4.15,1.858-4.15,4.15s1.857,4.15,4.15,4.15     C122.852-53.638,124.711-55.496,124.711-57.788z M174.171-73.179c0-0.955-0.775-1.73-1.73-1.73c-0.955,0-1.729,0.774-1.729,1.73     c0,0.955,0.773,1.729,1.729,1.729C173.395-71.45,174.171-72.224,174.171-73.179z" id="path3359"/>
      </g>
      <g id="g3361">
        <path class="st3" d="M290.284-104.841c0,6.227-4.15,10.721-8.646,11.586c-4.496,0.865-8.318-1.281-12.971,1.211     c-4.842,2.594-7.09,11.068-16.775,11.068c-7.955,0-15.217-7.955-15.217-18.85c0-20.234,13.143-29.226,25.594-29.226     C278.87-129.052,290.284-116.427,290.284-104.841z M270.57-119.195c0-2.1-1.703-3.803-3.805-3.803     c-2.102,0-3.805,1.703-3.805,3.803c0,2.102,1.703,3.805,3.805,3.805C268.866-115.39,270.57-117.093,270.57-119.195z" id="path3363"/>
        <path class="st1" d="M311.036-196.669c-11.76-1.384-19.369,0.346-22.654,3.113c-3.02,2.543-4.955,5.405-2.248,11.932     c2.939,7.091,1.533,14.732-5.535,15.91c-6.225,1.037-10.895-4.842-11.24-12.278c-0.24-5.183-1.902-8.301-5.533-7.608     c-3.633,0.691-4.629,5.9-3.633,11.759c1.385,8.128,5.535,11.76,6.227,20.233c0.494,6.055-2.939,13.662-12.451,15.045     c-9.301,1.354-15.91-4.322-16.602-10.549c-0.732-6.588,3.631-10.895,3.111-17.639c-0.518-6.745-4.012-10.172-5.879-17.294     c-2.768-10.549,1.211-19.023,7.781-22.654c14.746-8.148,22.832,3.642,35.971,1.556c10.897-1.729,23.348-18.157,33.031-19.541     c8.227-1.175,13.834,4.669,15.045,14.008C327.638-201.338,321.687-195.415,311.036-196.669z M268.841-196.151     c0-2.292-1.859-4.15-4.15-4.15c-2.293,0-4.15,1.858-4.15,4.15c0,2.292,1.858,4.15,4.15,4.15     C266.982-192,268.841-193.859,268.841-196.151z M318.3-211.541c0-0.955-0.775-1.73-1.73-1.73c-0.955,0-1.728,0.774-1.728,1.73     c0,0.955,0.773,1.729,1.728,1.729C317.525-209.812,318.3-210.586,318.3-211.541z" id="path3365"/>
      </g>
      <g id="g3367">
        <path class="st3" d="M131.796-133.191c-13.957,1.988-21.166-13.332-17.666-20.332c3.666-7.334,12.119-4.168,19.5-4.168     c9.666,0,16.367-7.568,20.416-2.25C158.296-154.357,149.036-135.646,131.796-133.191z M132.319-150.669     c0-1.24-1.006-2.248-2.248-2.248c-1.24,0-2.248,1.008-2.248,2.248c0,1.242,1.008,2.248,2.248,2.248     C131.313-148.421,132.319-149.427,132.319-150.669z" id="path3369"/>
        <path class="st2" d="M148.796-215.857c0,7.166,4.588,13.813-1,16.333c-8.5,3.833-28-14.333-28-36.167c0-12,8.668-19,17.834-19     c12.334,0,18,8.167,18,17.5C155.63-227.859,148.796-224.051,148.796-215.857z M143.387-221.226c0-1.146-0.93-2.075-2.074-2.075     c-1.146,0-2.076,0.929-2.076,2.075c0,1.146,0.93,2.075,2.076,2.075C142.458-219.151,143.387-220.081,143.387-221.226z" id="path3371"/>
        <path class="st3" d="M146.155-104.841c0,6.227-4.15,10.721-8.646,11.586c-4.496,0.865-8.318-1.281-12.971,1.211     c-4.842,2.594-7.09,11.068-16.775,11.068c-7.955,0-15.217-7.955-15.217-18.85c0-20.234,13.143-29.226,25.594-29.226     C134.741-129.052,146.155-116.427,146.155-104.841z M126.44-119.195c0-2.1-1.703-3.803-3.805-3.803     c-2.102,0-3.805,1.703-3.805,3.803c0,2.102,1.703,3.805,3.805,3.805C124.737-115.39,126.44-117.093,126.44-119.195z" id="path3373"/>
        <path class="st1" d="M145.464-128.533c0,1.336-1.084,2.42-2.422,2.42c-1.336,0-2.42-1.084-2.42-2.42     c0-1.338,1.084-2.422,2.42-2.422C144.38-130.955,145.464-129.871,145.464-128.533z" id="path3375"/>
        <path class="st3" d="M229.162-147.037c-3.191,4.68,1.039,10.721-1.383,15.217c-2.422,4.498-6.744,5.016-9.857,2.596     c-3.635-2.828-3.41-6.643-8.301-8.82c-5.529-2.465-17.984,2.248-19.714-7.264c-0.875-4.811,2.375-8.566,7.263-9.684     c6.053-1.383,9.352-0.18,15.391-3.113c6.053-2.939,11.242-8.993,22.137-12.105c10.406-2.975,16.072,1.557,16.602,5.879     C252.336-155.857,234.172-154.382,229.162-147.037z M226.914-154.474c0-1.24-1.006-2.248-2.248-2.248     c-1.24,0-2.248,1.008-2.248,2.248c0,1.242,1.008,2.248,2.248,2.248C225.908-152.226,226.914-153.232,226.914-154.474z" id="path3377"/>
        <path class="st2" d="M256.129-107.857c0,17.166-14.5,25.5-27,22.832c-10.264-2.19-12.834-17.332-16.668-26.166     c-3.713-8.557-8.832-22.5-20.165-22.5c-11.197,0-12.832,14.5-23.666,14.5c-11,0-24.5-15.666-24.5-39.666     c0-14.667,9.799-31.455,20.834-30.667c11.666,0.833,4.5,19.667,15.332,19.667c9.5,0,7.857-16.259,9.168-23.334     c1.666-9,6.831-14.166,18.497-13.166c14.443,1.237,22.334,13.5,18.871,23.344c-4.029,11.451-23.869,17.322-21.537,30.49     c1.346,7.592,13,11.998,26,16.166C245.824-131.701,256.129-125.025,256.129-107.857z M211.178-183.7     c0,1.815,1.471,3.286,3.285,3.286c1.814,0,3.287-1.471,3.287-3.286s-1.473-3.286-3.287-3.286     C212.648-186.986,211.178-185.515,211.178-183.7z M164.485-158.796c0-0.955-0.773-1.73-1.729-1.73c-0.955,0-1.73,0.775-1.73,1.73     s0.775,1.729,1.73,1.729C163.712-157.068,164.485-157.841,164.485-158.796z M181.952-148.076c0-2.102-1.703-3.805-3.805-3.805     c-2.1,0-3.805,1.703-3.805,3.805c0,2.102,1.705,3.805,3.805,3.805C180.249-144.271,181.952-145.974,181.952-148.076z      M201.84-163.639c0-0.859-0.697-1.556-1.557-1.556s-1.557,0.696-1.557,1.556c0,0.859,0.697,1.556,1.557,1.556     S201.84-162.78,201.84-163.639z M231.482-108.945c0-1.752-1.42-3.174-3.174-3.174c-1.752,0-3.174,1.422-3.174,3.174     c0,1.754,1.422,3.174,3.174,3.174C230.063-105.771,231.482-107.191,231.482-108.945z" id="path3379"/>
        <path class="st3" d="M223.494-192.363c-7.871,2.737-19.439-15.297-17.67-27.018c1.24-8.228,7.123-13.189,13.088-14.217     c7.525-1.297,12.898,2.6,13.299,7.243c0.547,6.309-3.633,7.518-4.223,14.958C227.426-204.262,231.68-195.211,223.494-192.363z      M219.705-219.871c0-1.434-1.162-2.595-2.594-2.595c-1.434,0-2.594,1.161-2.594,2.595c0,1.433,1.16,2.594,2.594,2.594     C218.543-217.277,219.705-218.438,219.705-219.871z" id="path3381"/>
        <path class="st2" d="M119.35-214.828c0,1.433-1.162,2.594-2.594,2.594c-1.434,0-2.594-1.161-2.594-2.594     c0-1.433,1.16-2.594,2.594-2.594C118.188-217.421,119.35-216.26,119.35-214.828z" id="path3383"/>
        <path class="st2" d="M253.348-128.091c0-8.41-5.078-15.227-11.34-15.227c-6.262,0-11.34,6.816-11.34,15.227     c0,8.408,5.078,12.441,11.34,12.441C248.27-115.65,253.348-119.683,253.348-128.091z" id="path3385"/>
        <path class="st3" d="M184.573-222.551c0.74,8.101,12.671,7.017,17.904,14.214c10.52,14.475-1.219,46.365-21.63,46.365     c-11.74,0-24.217-9.719-24.217-29.219c0-15.834,10.166-21.5,8.25-42.166c-1.006-10.834-12.5-20.343-12.5-34.75     c0-5.922,3.586-13.447,11.553-13.447c7.055,0,10.822,5.953,10.822,12.9c0,6.798-5.381,15.74,1.375,19.047     c5.242,2.565,13.211-4.77,19.499-6.75c5.191-1.636,12.389,0.225,14.75,8.5c2.531,8.876-3.252,14.745-11.592,16.693     C192.469-229.687,183.985-228.993,184.573-222.551z M168.589-253.11c0-1.815-1.471-3.287-3.285-3.287     c-1.814,0-3.287,1.472-3.287,3.287c0,1.814,1.473,3.285,3.287,3.285C167.118-249.825,168.589-251.295,168.589-253.11z      M194.572-243.415c1.285,0,2.328-1.043,2.328-2.33c0-1.286-1.043-2.328-2.328-2.328c-1.287,0-2.33,1.042-2.33,2.328     C192.243-244.457,193.286-243.415,194.572-243.415z M174.589-183.743c0-1.815-1.471-3.287-3.287-3.287     c-1.814,0-3.285,1.472-3.285,3.287c0,1.814,1.471,3.285,3.285,3.285C173.118-180.457,174.589-181.928,174.589-183.743z" id="path3387"/>
        <path class="st1" d="M166.907-196.669c-11.76-1.384-19.369,0.346-22.654,3.113c-3.02,2.543-4.955,5.405-2.248,11.932     c2.939,7.091,1.533,14.732-5.535,15.91c-6.225,1.037-10.895-4.842-11.24-12.278c-0.24-5.183-1.902-8.301-5.533-7.608     c-3.633,0.691-4.629,5.9-3.633,11.759c1.385,8.128,5.535,11.76,6.227,20.233c0.494,6.055-2.939,13.662-12.451,15.045     c-9.301,1.354-15.91-4.322-16.602-10.549c-0.732-6.588,3.631-10.895,3.111-17.639c-0.517-6.745-4.012-10.172-5.879-17.294     c-2.768-10.549,1.211-19.023,7.781-22.654c14.746-8.148,22.832,3.642,35.971,1.556c10.896-1.729,23.348-18.157,33.031-19.541     c8.227-1.175,13.834,4.669,15.045,14.008C183.508-201.338,177.557-195.415,166.907-196.669z M124.711-196.151     c0-2.292-1.859-4.15-4.15-4.15c-2.293,0-4.15,1.858-4.15,4.15c0,2.292,1.857,4.15,4.15,4.15     C122.852-192,124.711-193.859,124.711-196.151z M174.171-211.541c0-0.955-0.775-1.73-1.73-1.73c-0.955,0-1.729,0.774-1.729,1.73     c0,0.955,0.773,1.729,1.729,1.729C173.395-209.812,174.171-210.586,174.171-211.541z" id="path3389"/>
        <path class="st1" d="M230.201-174.361c0,0.764-0.619,1.384-1.385,1.384c-0.764,0-1.383-0.62-1.383-1.384     c0-0.764,0.619-1.384,1.383-1.384C229.582-175.745,230.201-175.124,230.201-174.361z" id="path3391"/>
        <path class="st2" d="M235.734-212.752c0,1.242-1.006,2.249-2.248,2.249c-1.242,0-2.25-1.007-2.25-2.249     c0-1.242,1.008-2.249,2.25-2.249C234.729-215.001,235.734-213.995,235.734-212.752z" id="path3393"/>
        <path class="st3" d="M152.208-189.58c0,0.668-0.543,1.211-1.211,1.211s-1.211-0.543-1.211-1.211s0.543-1.211,1.211-1.211     S152.208-190.248,152.208-189.58z" id="path3395"/>
        <path class="st3" d="M148.575-121.097c0,0.764-0.619,1.385-1.383,1.385s-1.383-0.621-1.383-1.385     c0-0.764,0.619-1.383,1.383-1.383S148.575-121.861,148.575-121.097z" id="path3397"/>
        <path class="st2" d="M233.141-143.06c0,0.668-0.543,1.211-1.211,1.211s-1.209-0.543-1.209-1.211c0-0.668,0.541-1.209,1.209-1.209     S233.141-143.728,233.141-143.06z" id="path3399"/>
        <path class="st1" d="M195.852-125.134c0,1.881-1.527,3.408-3.408,3.408c-1.883,0-3.408-1.527-3.408-3.408     c0-1.883,1.525-3.408,3.408-3.408C194.324-128.542,195.852-127.017,195.852-125.134z" id="path3401"/>
        <path class="st2" d="M200.832-85.283c0,1.158-0.939,2.096-2.098,2.096s-2.096-0.938-2.096-2.096c0-1.158,0.938-2.098,2.096-2.098     S200.832-86.441,200.832-85.283z" id="path3403"/>
        <path class="st2" d="M162.03-91.576c0,0.869-0.703,1.572-1.572,1.572c-0.869,0-1.574-0.703-1.574-1.572     c0-0.869,0.705-1.574,1.574-1.574C161.327-93.15,162.03-92.445,162.03-91.576z" id="path3405"/>
        <path class="st1" d="M235.701-205.623c0,1.447-1.174,2.621-2.621,2.621c-1.447,0-2.621-1.174-2.621-2.621     c0-1.447,1.174-2.621,2.621-2.621C234.527-208.245,235.701-207.071,235.701-205.623z" id="path3407"/>
        <path class="st3" d="M225.477-170.754c0,1.303-1.057,2.359-2.359,2.359s-2.359-1.057-2.359-2.359     c0-1.303,1.057-2.359,2.359-2.359S225.477-172.057,225.477-170.754z" id="path3409"/>
        <path class="st2" d="M127.686-164.2c0,1.448-1.174,2.622-2.623,2.622c-1.447,0-2.621-1.174-2.621-2.622     c0-1.448,1.174-2.622,2.621-2.622C126.512-166.822,127.686-165.648,127.686-164.2z" id="path3411"/>
        <path class="st3" d="M122.704-171.279c0,0.724-0.586,1.311-1.311,1.311c-0.723,0-1.311-0.587-1.311-1.311     c0-0.724,0.588-1.311,1.311-1.311C122.118-172.589,122.704-172.002,122.704-171.279z" id="path3413"/>
        <path class="st2" d="M186.938-119.367c0,0.869-0.705,1.572-1.574,1.572c-0.869,0-1.572-0.703-1.572-1.572     c0-0.869,0.703-1.574,1.572-1.574C186.233-120.941,186.938-120.236,186.938-119.367z" id="path3415"/>
      </g>
      <g id="g3417">
        <path class="st3" d="M85.033-147.037c-3.191,4.68,1.039,10.721-1.383,15.217c-2.422,4.498-6.744,5.016-9.857,2.596     c-3.635-2.828-3.41-6.643-8.301-8.82c-5.529-2.465-17.984,2.248-19.714-7.264c-0.875-4.811,2.375-8.566,7.263-9.684     c6.053-1.383,9.352-0.18,15.391-3.113c6.053-2.939,11.242-8.993,22.137-12.105c10.406-2.975,16.072,1.557,16.601,5.879     C108.206-155.857,90.042-154.382,85.033-147.037z M82.785-154.474c0-1.24-1.006-2.248-2.248-2.248     c-1.24,0-2.248,1.008-2.248,2.248c0,1.242,1.008,2.248,2.248,2.248C81.779-152.226,82.785-153.232,82.785-154.474z" id="path3419"/>
        <path class="st2" d="M111.999-107.857c0,17.166-14.5,25.5-27,22.832c-10.264-2.19-12.834-17.332-16.668-26.166     c-3.713-8.557-8.832-22.5-20.165-22.5c-11.197,0-12.832,14.5-23.666,14.5c-11,0-24.5-15.666-24.5-39.666     c0-14.667,9.799-31.455,20.834-30.667c11.666,0.833,4.5,19.667,15.332,19.667c9.5,0,7.857-16.259,9.168-23.334     c1.666-9,6.832-14.166,18.497-13.166c14.443,1.237,22.334,13.5,18.871,23.344c-4.029,11.451-23.869,17.322-21.537,30.49     c1.346,7.592,13,11.998,26,16.166C101.695-131.701,111.999-125.025,111.999-107.857z M67.048-183.7     c0,1.815,1.471,3.286,3.285,3.286c1.814,0,3.287-1.471,3.287-3.286s-1.473-3.286-3.287-3.286     C68.519-186.986,67.048-185.515,67.048-183.7z M20.355-158.796c0-0.955-0.773-1.73-1.729-1.73c-0.955,0-1.73,0.775-1.73,1.73     s0.775,1.729,1.73,1.729C19.582-157.068,20.355-157.841,20.355-158.796z M37.822-148.076c0-2.102-1.703-3.805-3.805-3.805     c-2.1,0-3.805,1.703-3.805,3.805c0,2.102,1.705,3.805,3.805,3.805C36.119-144.271,37.822-145.974,37.822-148.076z M57.71-163.639     c0-0.859-0.697-1.556-1.557-1.556c-0.859,0-1.557,0.696-1.557,1.556c0,0.859,0.697,1.556,1.557,1.556     C57.013-162.083,57.71-162.78,57.71-163.639z M87.353-108.945c0-1.752-1.42-3.174-3.174-3.174c-1.752,0-3.174,1.422-3.174,3.174     c0,1.754,1.422,3.174,3.174,3.174C85.933-105.771,87.353-107.191,87.353-108.945z" id="path3421"/>
        <path class="st2" d="M109.218-128.091c0-8.41-5.078-15.227-11.34-15.227c-6.262,0-11.34,6.816-11.34,15.227     c0,8.408,5.078,12.441,11.34,12.441C104.14-115.65,109.218-119.683,109.218-128.091z" id="path3423"/>
      </g>
    </g>
  </pattern>
  <g id="g3425">
    <path class="st4" d="M100,105H10c-2.761,0-5-2.239-5-5V10c0-2.761,2.239-5,5-5h90c2.761,0,5,2.239,5,5v90   C105,102.761,102.761,105,100,105z" id="path3427"/>
  </g>
  <g id="g3435">
    <path class="st7" d="M235,105h-90c-2.761,0-5-2.239-5-5V10c0-2.761,2.239-5,5-5h90c2.761,0,5,2.239,5,5v90   C240,102.761,237.761,105,235,105z" id="path3437"/>
    <text transform="translate(168.4844,51.322)" id="text3439"/>
    <flowRoot xml:space="preserve" id="flowRoot3535" style="fill:black;stroke:none;stroke-opacity:1;stroke-width:1px;stroke-linejoin:miter;stroke-linecap:butt;fill-opacity:1;font-family:sans-serif;font-style:normal;font-weight:normal;font-size:40px;line-height:125%;letter-spacing:0px;word-spacing:0px"><flowRegion id="flowRegion3537"><rect id="rect3539" width="90" height="80" x="140" y="15"/></flowRegion><flowPara id="flowPara3541"/></flowRoot>    <flowRoot xml:space="preserve" id="flowRoot3543" style="fill:black;stroke:none;stroke-opacity:1;stroke-width:1px;stroke-linejoin:miter;stroke-linecap:butt;fill-opacity:1;font-family:sans-serif;font-style:normal;font-weight:normal;font-size:16px;line-height:125%;letter-spacing:0px;word-spacing:0px;"><flowRegion id="flowRegion3545"><rect id="rect3547" width="100" height="100" x="140" y="5" style="font-size:16px;"/></flowRegion><flowPara id="flowPara3549"/></flowRoot>    <flowRoot xml:space="preserve" id="flowRoot3553" style="font-style:normal;font-weight:normal;font-size:40px;line-height:125%;font-family:sans-serif;text-align:center;letter-spacing:0px;word-spacing:0px;text-anchor:middle;fill:#000000;fill-opacity:1;stroke:none;stroke-width:1px;stroke-linecap:butt;stroke-linejoin:miter;stroke-opacity:1"><flowRegion id="flowRegion3555"><rect id="rect3557" width="87.027763" height="41.621975" x="146.93819" y="24.277412" style="text-align:center;text-anchor:middle"/></flowRegion><flowPara id="flowPara3559">Ana</flowPara></flowRoot>    <text xml:space="preserve" style="font-style:normal;font-weight:normal;font-size:16px;line-height:125%;font-family:sans-serif;text-align:center;letter-spacing:0px;word-spacing:0px;text-anchor:middle;fill:#000000;fill-opacity:1;stroke:none;stroke-width:1px;stroke-linecap:butt;stroke-linejoin:miter;stroke-opacity:1" x="187.69044" y="46.497643" id="text3644" sodipodi:linespacing="125%"><tspan sodipodi:role="line" x="187.69044" y="46.497643" id="tspan3646"><tspan x="187.69044" y="46.497643" id="tspan3648">Analyser</tspan><tspan dx="0" x="256.90918" y="46.497643" id="tspan3650"/></tspan><tspan sodipodi:role="line" x="190.39357" y="66.497635" id="tspan3652"><tspan x="190.39357" y="66.497635" id="tspan3654">le HTML</tspan></tspan></text>
  </g>
  <g id="g3445">
    <path class="st4" d="M235,240h-90c-2.761,0-5-2.239-5-5v-90c0-2.761,2.239-5,5-5h90c2.761,0,5,2.239,5,5v90   C240,237.761,237.761,240,235,240z" id="path3447"/>
    <flowRoot xml:space="preserve" id="flowRoot3578" style="fill:black;stroke:none;stroke-opacity:1;stroke-width:1px;stroke-linejoin:miter;stroke-linecap:butt;fill-opacity:1;font-family:sans-serif;font-style:normal;font-weight:normal;font-size:40px;line-height:125%;letter-spacing:0px;word-spacing:0px"><flowRegion id="flowRegion3580"><rect id="rect3582" width="89.550308" height="68.739319" x="145.04626" y="156.08032"/></flowRegion><flowPara id="flowPara3584"/></flowRoot>    <text xml:space="preserve" style="font-style:normal;font-weight:normal;font-size:16px;line-height:125%;font-family:sans-serif;text-align:center;letter-spacing:0px;word-spacing:0px;text-anchor:middle;fill:#000000;fill-opacity:1;stroke:none;stroke-width:1px;stroke-linecap:butt;stroke-linejoin:miter;stroke-opacity:1" x="188.66069" y="179.56271" id="text3656" sodipodi:linespacing="125%"><tspan sodipodi:role="line" x="188.66069" y="179.56271" id="tspan3658"><tspan x="188.66069" y="179.56271" id="tspan3660">Charger</tspan><tspan dx="0" x="252.78569" y="179.56271" id="tspan3662"/></tspan><tspan sodipodi:role="line" x="194.52007" y="199.56271" id="tspan3664"><tspan x="194.52007" y="199.56271" id="tspan3666">le CSS</tspan></tspan></text>
  </g>
  <g id="g3455">
    <path class="st7" d="M370,240h-90c-2.761,0-5-2.239-5-5v-90c0-2.761,2.239-5,5-5h90c2.761,0,5,2.239,5,5v90   C375,237.761,372.761,240,370,240z" id="path3457"/>
    <flowRoot xml:space="preserve" id="flowRoot3602" style="fill:black;stroke:none;stroke-opacity:1;stroke-width:1px;stroke-linejoin:miter;stroke-linecap:butt;fill-opacity:1;font-family:sans-serif;font-style:normal;font-weight:normal;font-size:40px;line-height:125%;letter-spacing:0px;word-spacing:0px"><flowRegion id="flowRegion3604"><rect id="rect3606" width="91.442215" height="83.24395" x="280.00238" y="149.14334"/></flowRegion><flowPara id="flowPara3608"/></flowRoot>    <text xml:space="preserve" style="font-style:normal;font-weight:normal;font-size:16px;line-height:125%;font-family:sans-serif;text-align:center;letter-spacing:0px;word-spacing:0px;text-anchor:middle;fill:#000000;fill-opacity:1;stroke:none;stroke-width:1px;stroke-linecap:butt;stroke-linejoin:miter;stroke-opacity:1" x="322.64508" y="175.14825" id="text3715" sodipodi:linespacing="125%"><tspan sodipodi:role="line" x="325.45758" y="175.14825" id="tspan3717"><tspan x="322.64508" y="175.14825" id="tspan3719">Analyser</tspan><tspan dx="0" x="397.48883" y="175.14825" id="tspan3721"/></tspan><tspan sodipodi:role="line" x="331.05133" y="195.14825" id="tspan3723"><tspan x="331.05133" y="195.14825" id="tspan3725">le CSS</tspan></tspan></text>
  </g>
  <g id="g3465">
    <path class="st8" d="M490,105H280c-2.761,0-5-2.239-5-5V10c0-2.761,2.239-5,5-5h210c2.761,0,5,2.239,5,5v90   C495,102.761,492.761,105,490,105z" id="path3467"/>
    <text id="text3469" x="314.70145" y="55.73645">
      <tspan x="314.70145" y="55.73645" class="st5 st6" id="tspan3471" style="font-size:16px;font-family:open_sanssemibold, sans-serif">Créer l'arbre DOM</tspan>
    </text>
  </g>
  <g id="g3475">
    <path class="st9" d="M625,105h-90c-2.761,0-5-2.239-5-5V10c0-2.761,2.239-5,5-5h90c2.761,0,5,2.239,5,5v90   C630,102.761,627.761,105,625,105z" id="path3477"/>
    <text transform="translate(550.7734,59.5974)" class="st10 st6" id="text3479" style="font-size:16px;font-family:open_sansbold, sans-serif">Afficher</text>
  </g>
  <path d="M145,53.33l-11.25-6.495c-0.773-0.446-1.727-0.446-2.5,0C130.477,47.282,130,48.107,130,49v4h-25v5h25v3.99  c0,0.893,0.477,1.718,1.25,2.165c0.387,0.223,0.818,0.335,1.25,0.335s0.863-0.112,1.25-0.335L145,57.66  c0.773-0.447,1.25-1.272,1.25-2.165S145.773,53.777,145,53.33z" id="path3481"/>
  <path d="M280,53.33l-11.25-6.495c-0.773-0.446-1.727-0.446-2.5,0C265.477,47.282,265,48.107,265,49v4h-25v5h25v3.99  c0,0.893,0.477,1.718,1.25,2.165c0.387,0.223,0.818,0.335,1.25,0.335s0.863-0.112,1.25-0.335L280,57.66  c0.773-0.447,1.25-1.272,1.25-2.165S280.773,53.777,280,53.33z" id="path3483"/>
  <path d="M535,53.33l-11.25-6.495c-0.773-0.446-1.727-0.446-2.5,0C520.477,47.282,520,48.107,520,49v4h-25v5h25v3.99  c0,0.893,0.477,1.718,1.25,2.165c0.387,0.223,0.818,0.335,1.25,0.335s0.863-0.112,1.25-0.335L535,57.66  c0.773-0.447,1.25-1.272,1.25-2.165S535.773,53.777,535,53.33z" id="path3485"/>
  <path d="M198.16,131.25c-0.447-0.773-1.272-1.25-2.165-1.25H192v-25h-5v25h-3.995c-0.893,0-1.718,0.477-2.165,1.25  s-0.447,1.727,0,2.5l6.495,11.25c0.447,0.773,1.272,1.25,2.165,1.25s1.718-0.477,2.165-1.25l6.495-11.25  C198.607,132.977,198.607,132.023,198.16,131.25z" id="path3487"/>
  <path d="M280,188.33l-11.25-6.495c-0.773-0.446-1.727-0.446-2.5,0c-0.773,0.447-1.25,1.272-1.25,2.165v4h-25v5h25v3.99  c0,0.893,0.477,1.718,1.25,2.165c0.387,0.223,0.818,0.335,1.25,0.335s0.863-0.112,1.25-0.335L280,192.66  c0.773-0.447,1.25-1.272,1.25-2.165S280.773,188.777,280,188.33z" id="path3489"/>
  <path d="M453.28,110.25L446.785,99c-0.446-0.773-1.271-1.25-2.165-1.25s-1.719,0.477-2.165,1.25l-6.495,11.25  c-0.446,0.773-0.446,1.727,0,2.5s1.271,1.25,2.165,1.25h4.149c-1.272,24.495-8.289,43.332-20.947,56.042  C409.952,181.463,393.933,187.5,375,187.5v5c20.291,0,37.535-6.546,49.869-18.93c13.599-13.655,21.105-33.68,22.407-59.57h3.839  c0.894,0,1.719-0.477,2.165-1.25S453.727,111.023,453.28,110.25z" id="path3491"/>
  <flowRoot xml:space="preserve" id="flowRoot3509" style="font-style:normal;font-weight:normal;font-size:40px;line-height:125%;font-family:sans-serif;letter-spacing:0px;word-spacing:0px;fill:#000000;fill-opacity:1;stroke:none;stroke-width:1px;stroke-linecap:butt;stroke-linejoin:miter;stroke-opacity:1"><flowRegion id="flowRegion3511"><rect id="rect3513" width="82.613312" height="80.090767" x="15.135263" y="13.556602"/></flowRegion><flowPara id="flowPara3515">Charger</flowPara></flowRoot>  <flowRoot xml:space="preserve" id="flowRoot3517" style="fill:black;stroke:none;stroke-opacity:1;stroke-width:1px;stroke-linejoin:miter;stroke-linecap:butt;fill-opacity:1;font-family:sans-serif;font-style:normal;font-weight:normal;font-size:40px;line-height:125%;letter-spacing:0px;word-spacing:0px"><flowRegion id="flowRegion3519"><rect id="rect3521" width="92.703484" height="83.87458" x="8.1982679" y="13.556602"/></flowRegion><flowPara id="flowPara3523"/></flowRoot>  <text xml:space="preserve" style="font-style:normal;font-weight:normal;font-size:16px;line-height:125%;font-family:sans-serif;text-align:center;letter-spacing:0px;word-spacing:0px;text-anchor:middle;fill:#000000;fill-opacity:1;stroke:none;stroke-width:1px;stroke-linecap:butt;stroke-linejoin:miter;stroke-opacity:1" x="52.758278" y="49.021366" id="text3634" sodipodi:linespacing="125%"><tspan sodipodi:role="line" x="55.570778" y="49.021366" id="tspan3636"><tspan x="52.758278" y="49.021366" id="tspan3638">Charger</tspan></tspan><tspan sodipodi:role="line" x="52.914528" y="69.02137" id="tspan3640"><tspan x="52.914528" y="69.02137" id="tspan3642">le HTML</tspan></tspan></text>
  <text xml:space="preserve" style="font-style:normal;font-weight:normal;font-size:16px;line-height:125%;font-family:sans-serif;letter-spacing:0px;word-spacing:0px;fill:#000000;fill-opacity:1;stroke:none;stroke-width:1px;stroke-linecap:butt;stroke-linejoin:miter;stroke-opacity:1" x="450.9043" y="156.85925" id="text3680" sodipodi:linespacing="125%"><tspan sodipodi:role="line" x="450.9043" y="156.85925" id="tspan3682"><tspan x="450.9043" y="156.85925" id="tspan3684">Attacher un style</tspan><tspan dx="9.53125" id="tspan3686"/></tspan><tspan sodipodi:role="line" x="450.9043" y="176.85925" id="tspan3688"><tspan x="450.9043" id="tspan3690">au nœud du DOM</tspan></tspan></text>
  <text xml:space="preserve" style="font-style:normal;font-weight:normal;font-size:40px;line-height:125%;font-family:sans-serif;letter-spacing:0px;word-spacing:0px;fill:#000000;fill-opacity:1;stroke:none;stroke-width:1px;stroke-linecap:butt;stroke-linejoin:miter;stroke-opacity:1" x="112.88384" y="-81.669426" id="text3630" sodipodi:linespacing="125%"><tspan sodipodi:role="line" id="tspan3632" x="112.88384" y="-81.669426"/></text>
</svg>